<mxfile host="app.diagrams.net" agent="Mozilla/5.0 (Windows NT 10.0; Win64; x64) AppleWebKit/537.36 (KHTML, like Gecko) Chrome/133.0.0.0 Safari/537.36 Edg/133.0.0.0" version="26.0.16">
  <diagram name="Page-1" id="74e2e168-ea6b-b213-b513-2b3c1d86103e">
    <mxGraphModel dx="3480" dy="1127" grid="1" gridSize="10" guides="1" tooltips="1" connect="1" arrows="1" fold="1" page="1" pageScale="1" pageWidth="1100" pageHeight="850" background="none" math="0" shadow="0">
      <root>
        <mxCell id="0" />
        <mxCell id="1" parent="0" />
        <mxCell id="PN7_zCeiI8JO8wiYlvwA-3" value="" style="edgeStyle=orthogonalEdgeStyle;rounded=0;orthogonalLoop=1;jettySize=auto;html=1;" edge="1" parent="1" source="PN7_zCeiI8JO8wiYlvwA-1" target="PN7_zCeiI8JO8wiYlvwA-2">
          <mxGeometry relative="1" as="geometry" />
        </mxCell>
        <mxCell id="PN7_zCeiI8JO8wiYlvwA-1" value="Search(int[] nums, int target)" style="strokeWidth=2;html=1;shape=mxgraph.flowchart.terminator;whiteSpace=wrap;" vertex="1" parent="1">
          <mxGeometry x="500" y="10" width="160" height="80" as="geometry" />
        </mxCell>
        <mxCell id="PN7_zCeiI8JO8wiYlvwA-10" value="" style="edgeStyle=orthogonalEdgeStyle;rounded=0;orthogonalLoop=1;jettySize=auto;html=1;" edge="1" parent="1" source="PN7_zCeiI8JO8wiYlvwA-2" target="PN7_zCeiI8JO8wiYlvwA-9">
          <mxGeometry relative="1" as="geometry" />
        </mxCell>
        <mxCell id="PN7_zCeiI8JO8wiYlvwA-2" value="初始化left right mid" style="whiteSpace=wrap;html=1;strokeWidth=2;" vertex="1" parent="1">
          <mxGeometry x="520" y="180" width="120" height="60" as="geometry" />
        </mxCell>
        <mxCell id="PN7_zCeiI8JO8wiYlvwA-6" value="" style="endArrow=none;dashed=1;html=1;rounded=0;entryX=0;entryY=0;entryDx=0;entryDy=40;entryPerimeter=0;" edge="1" parent="1">
          <mxGeometry width="50" height="50" relative="1" as="geometry">
            <mxPoint x="640" y="210" as="sourcePoint" />
            <mxPoint x="730" y="190" as="targetPoint" />
          </mxGeometry>
        </mxCell>
        <mxCell id="PN7_zCeiI8JO8wiYlvwA-14" value="" style="edgeStyle=orthogonalEdgeStyle;rounded=0;orthogonalLoop=1;jettySize=auto;html=1;" edge="1" parent="1" source="PN7_zCeiI8JO8wiYlvwA-9" target="PN7_zCeiI8JO8wiYlvwA-13">
          <mxGeometry relative="1" as="geometry" />
        </mxCell>
        <mxCell id="PN7_zCeiI8JO8wiYlvwA-36" value="" style="edgeStyle=orthogonalEdgeStyle;rounded=0;orthogonalLoop=1;jettySize=auto;html=1;" edge="1" parent="1" source="PN7_zCeiI8JO8wiYlvwA-9">
          <mxGeometry relative="1" as="geometry">
            <mxPoint x="330" y="330" as="targetPoint" />
          </mxGeometry>
        </mxCell>
        <mxCell id="PN7_zCeiI8JO8wiYlvwA-9" value="while(right &amp;gt; left)" style="whiteSpace=wrap;html=1;strokeWidth=2;" vertex="1" parent="1">
          <mxGeometry x="520" y="290" width="120" height="60" as="geometry" />
        </mxCell>
        <mxCell id="PN7_zCeiI8JO8wiYlvwA-19" value="" style="edgeStyle=orthogonalEdgeStyle;rounded=0;orthogonalLoop=1;jettySize=auto;html=1;" edge="1" parent="1" source="PN7_zCeiI8JO8wiYlvwA-13" target="PN7_zCeiI8JO8wiYlvwA-18">
          <mxGeometry relative="1" as="geometry" />
        </mxCell>
        <mxCell id="PN7_zCeiI8JO8wiYlvwA-13" value="mid =left + (right - left) / 2" style="whiteSpace=wrap;html=1;strokeWidth=2;" vertex="1" parent="1">
          <mxGeometry x="500" y="430" width="160" height="80" as="geometry" />
        </mxCell>
        <mxCell id="PN7_zCeiI8JO8wiYlvwA-15" value="" style="endArrow=none;dashed=1;html=1;rounded=0;" edge="1" parent="1">
          <mxGeometry width="50" height="50" relative="1" as="geometry">
            <mxPoint x="660" y="480" as="sourcePoint" />
            <mxPoint x="710" y="430" as="targetPoint" />
          </mxGeometry>
        </mxCell>
        <mxCell id="PN7_zCeiI8JO8wiYlvwA-16" value="right - left 对半分 加上left得到中间索引" style="shape=document;whiteSpace=wrap;html=1;boundedLbl=1;" vertex="1" parent="1">
          <mxGeometry x="710" y="400" width="250" height="120" as="geometry" />
        </mxCell>
        <mxCell id="PN7_zCeiI8JO8wiYlvwA-17" value="right = nums.length - 1" style="shape=document;whiteSpace=wrap;html=1;boundedLbl=1;" vertex="1" parent="1">
          <mxGeometry x="730" y="170" width="200" height="100" as="geometry" />
        </mxCell>
        <mxCell id="PN7_zCeiI8JO8wiYlvwA-21" value="" style="edgeStyle=orthogonalEdgeStyle;rounded=0;orthogonalLoop=1;jettySize=auto;html=1;" edge="1" parent="1" source="PN7_zCeiI8JO8wiYlvwA-18" target="PN7_zCeiI8JO8wiYlvwA-20">
          <mxGeometry relative="1" as="geometry" />
        </mxCell>
        <mxCell id="PN7_zCeiI8JO8wiYlvwA-24" value="" style="edgeStyle=orthogonalEdgeStyle;rounded=0;orthogonalLoop=1;jettySize=auto;html=1;" edge="1" parent="1" source="PN7_zCeiI8JO8wiYlvwA-18" target="PN7_zCeiI8JO8wiYlvwA-23">
          <mxGeometry relative="1" as="geometry" />
        </mxCell>
        <mxCell id="PN7_zCeiI8JO8wiYlvwA-18" value="nums[mid] == target" style="rhombus;whiteSpace=wrap;html=1;strokeWidth=2;" vertex="1" parent="1">
          <mxGeometry x="508" y="580" width="144" height="90" as="geometry" />
        </mxCell>
        <mxCell id="PN7_zCeiI8JO8wiYlvwA-20" value="return mid" style="whiteSpace=wrap;html=1;strokeWidth=2;" vertex="1" parent="1">
          <mxGeometry x="520" y="765" width="120" height="60" as="geometry" />
        </mxCell>
        <mxCell id="PN7_zCeiI8JO8wiYlvwA-22" value="yes" style="text;html=1;align=center;verticalAlign=middle;resizable=0;points=[];autosize=1;strokeColor=none;fillColor=none;" vertex="1" parent="1">
          <mxGeometry x="570" y="688" width="40" height="30" as="geometry" />
        </mxCell>
        <mxCell id="PN7_zCeiI8JO8wiYlvwA-27" value="" style="edgeStyle=orthogonalEdgeStyle;rounded=0;orthogonalLoop=1;jettySize=auto;html=1;" edge="1" parent="1" source="PN7_zCeiI8JO8wiYlvwA-23" target="PN7_zCeiI8JO8wiYlvwA-26">
          <mxGeometry relative="1" as="geometry" />
        </mxCell>
        <mxCell id="PN7_zCeiI8JO8wiYlvwA-31" value="" style="edgeStyle=orthogonalEdgeStyle;rounded=0;orthogonalLoop=1;jettySize=auto;html=1;" edge="1" parent="1" source="PN7_zCeiI8JO8wiYlvwA-23" target="PN7_zCeiI8JO8wiYlvwA-30">
          <mxGeometry relative="1" as="geometry" />
        </mxCell>
        <mxCell id="PN7_zCeiI8JO8wiYlvwA-23" value="nums[mid] &amp;lt; target" style="rhombus;whiteSpace=wrap;html=1;strokeWidth=2;" vertex="1" parent="1">
          <mxGeometry x="732" y="580" width="144" height="90" as="geometry" />
        </mxCell>
        <mxCell id="PN7_zCeiI8JO8wiYlvwA-25" value="no" style="text;html=1;align=center;verticalAlign=middle;resizable=0;points=[];autosize=1;strokeColor=none;fillColor=none;" vertex="1" parent="1">
          <mxGeometry x="660" y="598" width="40" height="30" as="geometry" />
        </mxCell>
        <mxCell id="PN7_zCeiI8JO8wiYlvwA-29" style="edgeStyle=orthogonalEdgeStyle;rounded=0;orthogonalLoop=1;jettySize=auto;html=1;entryX=1;entryY=0.5;entryDx=0;entryDy=0;" edge="1" parent="1" source="PN7_zCeiI8JO8wiYlvwA-26" target="PN7_zCeiI8JO8wiYlvwA-9">
          <mxGeometry relative="1" as="geometry">
            <Array as="points">
              <mxPoint x="1040" y="770" />
              <mxPoint x="1040" y="320" />
            </Array>
          </mxGeometry>
        </mxCell>
        <mxCell id="PN7_zCeiI8JO8wiYlvwA-26" value="left = mid" style="whiteSpace=wrap;html=1;strokeWidth=2;" vertex="1" parent="1">
          <mxGeometry x="744" y="740" width="120" height="60" as="geometry" />
        </mxCell>
        <mxCell id="PN7_zCeiI8JO8wiYlvwA-28" value="yes" style="text;html=1;align=center;verticalAlign=middle;resizable=0;points=[];autosize=1;strokeColor=none;fillColor=none;" vertex="1" parent="1">
          <mxGeometry x="800" y="688" width="40" height="30" as="geometry" />
        </mxCell>
        <mxCell id="PN7_zCeiI8JO8wiYlvwA-30" value="right = mid" style="whiteSpace=wrap;html=1;strokeWidth=2;" vertex="1" parent="1">
          <mxGeometry x="900" y="595" width="120" height="60" as="geometry" />
        </mxCell>
        <mxCell id="PN7_zCeiI8JO8wiYlvwA-32" value="no" style="text;html=1;align=center;verticalAlign=middle;resizable=0;points=[];autosize=1;strokeColor=none;fillColor=none;" vertex="1" parent="1">
          <mxGeometry x="860" y="618" width="40" height="30" as="geometry" />
        </mxCell>
        <mxCell id="PN7_zCeiI8JO8wiYlvwA-34" value="yes" style="text;html=1;align=center;verticalAlign=middle;resizable=0;points=[];autosize=1;strokeColor=none;fillColor=none;" vertex="1" parent="1">
          <mxGeometry x="570" y="358" width="40" height="30" as="geometry" />
        </mxCell>
        <mxCell id="PN7_zCeiI8JO8wiYlvwA-37" value="no" style="text;html=1;align=center;verticalAlign=middle;resizable=0;points=[];autosize=1;strokeColor=none;fillColor=none;" vertex="1" parent="1">
          <mxGeometry x="430" y="278" width="40" height="30" as="geometry" />
        </mxCell>
        <mxCell id="PN7_zCeiI8JO8wiYlvwA-38" value="" style="endArrow=none;dashed=1;html=1;rounded=0;" edge="1" parent="1">
          <mxGeometry width="50" height="50" relative="1" as="geometry">
            <mxPoint x="260" y="290" as="sourcePoint" />
            <mxPoint x="310" y="240" as="targetPoint" />
          </mxGeometry>
        </mxCell>
        <mxCell id="PN7_zCeiI8JO8wiYlvwA-39" value="出现两个值的情况" style="shape=document;whiteSpace=wrap;html=1;boundedLbl=1;" vertex="1" parent="1">
          <mxGeometry x="210" y="100" width="210" height="160" as="geometry" />
        </mxCell>
        <mxCell id="PN7_zCeiI8JO8wiYlvwA-41" style="edgeStyle=orthogonalEdgeStyle;rounded=0;orthogonalLoop=1;jettySize=auto;html=1;" edge="1" parent="1" source="PN7_zCeiI8JO8wiYlvwA-40">
          <mxGeometry relative="1" as="geometry">
            <mxPoint x="70" y="329" as="targetPoint" />
          </mxGeometry>
        </mxCell>
        <mxCell id="PN7_zCeiI8JO8wiYlvwA-45" value="" style="edgeStyle=orthogonalEdgeStyle;rounded=0;orthogonalLoop=1;jettySize=auto;html=1;" edge="1" parent="1" source="PN7_zCeiI8JO8wiYlvwA-40">
          <mxGeometry relative="1" as="geometry">
            <mxPoint x="260" y="460" as="targetPoint" />
          </mxGeometry>
        </mxCell>
        <mxCell id="PN7_zCeiI8JO8wiYlvwA-40" value="nums[left] == target" style="strokeWidth=2;html=1;shape=mxgraph.flowchart.decision;whiteSpace=wrap;" vertex="1" parent="1">
          <mxGeometry x="190" y="278" width="140" height="102" as="geometry" />
        </mxCell>
        <mxCell id="PN7_zCeiI8JO8wiYlvwA-42" value="yes" style="text;html=1;align=center;verticalAlign=middle;resizable=0;points=[];autosize=1;strokeColor=none;fillColor=none;" vertex="1" parent="1">
          <mxGeometry x="110" y="288" width="40" height="30" as="geometry" />
        </mxCell>
        <mxCell id="PN7_zCeiI8JO8wiYlvwA-43" value="return left" style="rounded=0;whiteSpace=wrap;html=1;" vertex="1" parent="1">
          <mxGeometry x="-50" y="299" width="120" height="60" as="geometry" />
        </mxCell>
        <mxCell id="PN7_zCeiI8JO8wiYlvwA-46" value="no" style="text;html=1;align=center;verticalAlign=middle;resizable=0;points=[];autosize=1;strokeColor=none;fillColor=none;" vertex="1" parent="1">
          <mxGeometry x="260" y="408" width="40" height="30" as="geometry" />
        </mxCell>
        <mxCell id="PN7_zCeiI8JO8wiYlvwA-47" value="return right" style="rounded=0;whiteSpace=wrap;html=1;" vertex="1" parent="1">
          <mxGeometry x="200" y="460" width="120" height="60" as="geometry" />
        </mxCell>
      </root>
    </mxGraphModel>
  </diagram>
</mxfile>
